<svg width="123" height="74" viewBox="0 0 123 74" fill="none" xmlns="http://www.w3.org/2000/svg">
<path fill-rule="evenodd" clip-rule="evenodd" d="M120.544 4L122.208 1.27273H104.843L103.222 4H120.544ZM76.4852 4L74.8715 1.27273H57.4354L59.1106 4H76.4852ZM61.5677 8H78.8519L82.4021 14H65.2532L61.5677 8ZM50.3108 4C48.8388 3.23938 47.2816 2.5907 45.6392 2.05398C42.0407 0.870263 38.1345 0.278406 33.9205 0.278406C28.0441 0.278406 22.7079 1.51894 17.912 4H50.3108ZM11.9449 8H56.1666C58.1266 9.72753 59.8077 11.7275 61.2101 14H36.5177C35.7912 13.9195 35.0439 13.8793 34.2756 13.8793C33.4947 13.8793 32.7347 13.9195 31.9955 14H6.58211C8.14871 11.725 9.93629 9.72499 11.9449 8ZM1.83504 24C2.46014 21.8702 3.24875 19.8702 4.20086 18H22.7171C20.9275 19.5711 19.4537 21.5711 18.2956 24H1.83504ZM0.15219 34C0.281265 31.9095 0.524373 29.9095 0.881513 28H16.8071C16.298 29.8371 15.9543 31.8371 15.7761 34H0.15219ZM0.387525 44C0.170207 42.082 0.0555834 40.082 0.0436531 38H15.6334C15.6484 40.1438 15.797 42.1438 16.0792 44H0.387525ZM2.72154 54C2.01076 52.1129 1.44142 50.1129 1.01352 48H16.9589C17.2411 48.95 17.5682 49.8515 17.9403 50.7045C18.4711 51.9027 19.0728 53.0012 19.7456 54H2.72154ZM8.60376 64C7.07649 62.209 5.71869 60.209 4.53036 58H23.4828C23.8042 58.2443 24.1348 58.4758 24.4744 58.6946C27.268 60.4938 30.4995 61.3935 34.169 61.3935C36.2287 61.3935 38.1345 61.1212 39.8864 60.5767C41.6619 60.0322 43.2363 59.2391 44.6094 58.1974C44.6931 58.1325 44.776 58.0667 44.858 58H62.9069C62.7671 58.2918 62.622 58.5825 62.4716 58.8722C61.533 60.6934 60.3995 62.4026 59.0713 64H8.60376ZM25.1382 74C22.0763 73.2679 19.2036 72.1315 16.5199 70.5909C15.1803 69.8183 13.9144 68.9547 12.7224 68H55.0513C52.5888 70.0173 49.7236 71.6504 46.456 72.8991C45.307 73.3337 44.1111 73.7006 42.8681 74H25.1382ZM57.0092 74H74.6229L78.228 68H60.7651L57.0092 74ZM63.269 64H80.6315L84.2366 58H67.0249L63.269 64ZM69.5288 54H86.64L89.5376 49.1776H90.1058L93.0034 54H110.225L106.481 48H73.2846L69.5288 54ZM75.7885 44H103.985L100.24 38H79.5444L75.7885 44ZM77.5384 34H102.233L105.895 28H73.8528L77.5384 34ZM71.3958 24H88.319L84.7688 18H67.7102L71.3958 24ZM63.2712 18H45.5955C46.6236 18.9704 47.4905 20.0945 48.196 21.3722C48.6528 22.1869 49.0291 23.0629 49.3249 24H65.0649C64.6486 21.8654 64.0508 19.8654 63.2712 18ZM94.8977 18L91.3304 24H108.336L111.999 18H94.8977ZM118.102 8L114.44 14H97.276L100.843 8H118.102ZM112.721 58H95.4069L99.012 64H116.465L112.721 58ZM118.961 68H101.415L105.021 74H122.705L118.961 68ZM64.4743 54C64.9557 52.4324 65.2943 50.8367 65.4901 49.2131L49.9361 49.142C49.6062 50.9452 49.0313 52.5645 48.2113 54H64.4743Z" fill="black"/>
</svg>
